<svg width="179" height="37" viewBox="0 0 179 37" fill="none" xmlns="http://www.w3.org/2000/svg">
<g clip-path="url(#clip0_2203_5467)">
<path d="M25.5964 30.8456C21.9405 30.8839 18.8409 29.4454 16.8672 26.7946C14.4006 23.4821 13.9825 18.6275 15.6915 13.1264C15.7663 12.8867 15.6358 12.6393 15.4172 12.5549C9.77805 10.3548 5.0807 12.34 1.83724 18.2976C1.78929 18.3858 1.77011 18.4894 1.78545 18.5949C3.18756 27.3508 11.019 33.8224 17.8781 36.9584C17.88 36.9584 17.8819 36.9584 17.8838 36.9584C18.0066 37.0122 18.1466 37.0083 18.2521 36.9623C20.8971 35.8498 23.6975 33.9087 25.9339 31.6358C26.2255 31.3404 26.0107 30.8398 25.5964 30.8436V30.8456ZM2.72914 18.6044C5.65804 13.3221 9.6457 11.5191 14.5905 13.2434C12.308 17.726 11.2895 21.6388 11.4794 25.1949C11.6635 28.6551 13.033 31.8104 15.6493 34.7718C9.8049 31.4478 3.95863 25.8336 2.72914 18.6044ZM18.16 35.9841C14.4543 32.6063 12.6206 29.1557 12.4077 25.147C12.2773 22.6938 12.7606 20.0468 13.8731 17.1275C13.7389 18.2381 13.6947 19.3122 13.7485 20.3403C13.8923 23.0429 14.6883 25.4328 16.1192 27.3547C18.0699 29.9728 21.0103 31.5092 24.4858 31.7471C22.5639 33.5289 20.3159 35.0365 18.16 35.986V35.9841Z" fill="url(#paint0_linear_2203_5467)"/>
<path d="M9.65056 10.1727C13.7514 9.69318 18.1649 11.757 22.0758 15.9883C22.0758 15.9883 22.0796 15.9902 22.0816 15.9921C22.2504 16.1686 22.5227 16.1839 22.7088 16.0343C25.584 13.7326 26.9554 10.9879 26.7904 7.87485C26.683 5.86471 25.9215 3.6877 24.5252 1.40136C24.4715 1.31313 24.3909 1.246 24.2931 1.20956C16.009 -1.95334 6.48958 1.59317 0.344091 5.96637C0.242434 6.03734 0.169547 6.15626 0.152285 6.28668C-0.00116097 7.4874 -0.0376043 8.78593 0.0333643 10.1152C0.131186 11.9392 0.432323 13.8247 0.923348 15.6027C1.03268 16.0017 1.57357 16.0688 1.77689 15.7063C3.5722 12.5223 6.36683 10.5563 9.64864 10.1708L9.65056 10.1727ZM23.8117 2.02473C25.0738 4.12694 25.7623 6.11022 25.8602 7.92663C26.0021 10.5755 24.88 12.9462 22.5246 14.9775C17.131 6.67221 11.1179 3.5496 3.35546 5.12817C9.1557 1.73127 16.9392 -0.526297 23.8117 2.02473ZM1.55439 14.2965C0.9713 11.7398 0.791001 9.04103 1.0461 6.69715C8.51507 4.3245 14.3441 6.08529 19.4998 12.3938C16.2583 9.96746 12.8211 8.86265 9.54123 9.24627C6.2997 9.62604 3.4974 11.406 1.55439 14.2946V14.2965Z" fill="url(#paint1_linear_2203_5467)"/>
<path d="M36.0521 7.64891C36.008 6.82798 35.9485 6.26982 35.9485 6.26982C35.9351 6.14514 35.8622 6.02047 35.7682 5.9495C33.4819 4.21365 30.3995 2.75975 27.3153 1.95992C26.9144 1.85634 26.5864 2.28982 26.7974 2.6485C28.6579 5.79606 28.9629 9.19871 27.6548 12.2331C26.0206 16.0251 22.0252 18.814 16.4053 20.0857C16.4053 20.0857 16.4034 20.0857 16.4014 20.0876C16.1751 20.1394 16.0102 20.3638 16.0485 20.6093C16.9634 26.5937 21.0317 29.6664 27.812 29.4976C27.9156 29.4957 28.0134 29.4593 28.094 29.3941C36.2017 22.8055 36.2343 11.0823 36.0521 7.64699V7.64891ZM28.5102 12.6033C29.803 9.60534 29.6611 6.29092 28.1324 3.16063C30.6374 3.93361 33.0656 5.12665 34.9664 6.51917C33.2843 14.1742 28.8459 18.3421 20.8053 19.6522C24.5264 18.0564 27.204 15.6319 28.5102 12.6014V12.6033ZM27.6317 28.5731C21.5917 28.6786 18.0376 26.1257 17.0574 20.9814C26.9374 20.4635 32.6475 16.823 35.1659 9.32338C35.1698 13.7906 34.3009 23.0491 27.6317 28.5731Z" fill="url(#paint2_linear_2203_5467)"/>
</g>
<path d="M44.6792 5.95605H50.8345C52.632 5.95605 54.1932 6.14941 55.5181 6.53613C56.8429 6.92285 57.9386 7.47786 58.8052 8.20117C59.6789 8.91732 60.327 9.79102 60.7495 10.8223C61.1792 11.8464 61.394 12.9993 61.394 14.2812C61.394 15.4987 61.1828 16.6266 60.7603 17.665C60.3377 18.6963 59.6932 19.5915 58.8267 20.3506C57.9601 21.1025 56.8644 21.6934 55.5396 22.123C54.2147 22.5456 52.6535 22.7568 50.856 22.7568L44.6792 22.7461V5.95605ZM51.6724 19.8027C52.6893 19.8027 53.5809 19.6738 54.3472 19.416C55.1134 19.151 55.7508 18.7786 56.2593 18.2988C56.7749 17.819 57.1616 17.2389 57.4194 16.5586C57.6772 15.8783 57.8062 15.1191 57.8062 14.2812C57.8062 13.4577 57.6772 12.7165 57.4194 12.0576C57.1616 11.3916 56.7749 10.8294 56.2593 10.3711C55.7508 9.9056 55.1134 9.54753 54.3472 9.29688C53.5809 9.04622 52.6893 8.9209 51.6724 8.9209H48.0845V19.8027H51.6724ZM64.8101 5.95605H79.1079V8.94238H68.2153V12.2939H77.8618V15.0977H68.2153V19.7705H79.3335V22.7461H64.8101V5.95605ZM83.1147 5.95605H98.1323V8.94238H86.52V13.3359H96.3813V16.1396H86.52V22.7461H83.1147V5.95605ZM101.419 5.95605H115.717V8.94238H104.825V12.2939H114.471V15.0977H104.825V19.7705H115.943V22.7461H101.419V5.95605ZM119.703 5.95605H123.108L133.571 11.4346V5.95605H136.976V22.7461H133.571V15.0439L123.108 9.59766V22.7461H119.703V5.95605ZM140.704 14.249C140.704 13.0531 140.929 11.9395 141.38 10.9082C141.832 9.86979 142.483 8.97103 143.335 8.21191C144.195 7.44564 145.24 6.84408 146.472 6.40723C147.711 5.97038 149.111 5.75195 150.672 5.75195C152.04 5.75195 153.293 5.8916 154.432 6.1709C155.578 6.44303 156.641 6.86198 157.623 7.42773L156.054 10.0059C155.761 9.8125 155.42 9.64062 155.034 9.49023C154.654 9.33984 154.246 9.21452 153.809 9.11426C153.379 9.00684 152.932 8.92448 152.466 8.86719C152.008 8.8099 151.553 8.78125 151.102 8.78125C150.014 8.78125 149.043 8.91732 148.191 9.18945C147.339 9.45443 146.619 9.8304 146.032 10.3174C145.452 10.7972 145.008 11.3737 144.7 12.0469C144.399 12.7129 144.249 13.4469 144.249 14.249C144.249 15.0798 144.406 15.8424 144.721 16.5371C145.036 17.2318 145.491 17.8333 146.085 18.3418C146.687 18.8431 147.417 19.237 148.277 19.5234C149.143 19.8027 150.121 19.9424 151.209 19.9424C151.704 19.9424 152.194 19.9066 152.681 19.835C153.168 19.7633 153.637 19.6667 154.088 19.5449C154.547 19.416 154.987 19.2656 155.41 19.0938C155.832 18.9147 156.226 18.7214 156.591 18.5137L158.16 21.0918C157.243 21.679 156.183 22.141 154.98 22.4775C153.777 22.807 152.499 22.9717 151.145 22.9717C149.419 22.9717 147.904 22.7497 146.601 22.3057C145.298 21.8545 144.209 21.2386 143.335 20.458C142.462 19.6702 141.803 18.7464 141.359 17.6865C140.922 16.6195 140.704 15.4736 140.704 14.249ZM161.919 5.95605H176.217V8.94238H165.325V12.2939H174.971V15.0977H165.325V19.7705H176.443V22.7461H161.919V5.95605Z" fill="white"/>
<path d="M50.6884 29.7618H49.3298C49.3116 29.6274 49.2745 29.5061 49.2184 29.3979C49.1622 29.2897 49.0879 29.1972 48.9955 29.1204C48.9031 29.0436 48.7935 28.9852 48.6667 28.945C48.5417 28.9032 48.4032 28.8822 48.251 28.8822C47.9811 28.8822 47.7483 28.9459 47.5526 29.0733C47.3588 29.2007 47.2093 29.3848 47.1043 29.6257C47.001 29.8665 46.9494 30.158 46.9494 30.5C46.9494 30.856 47.0019 31.1545 47.107 31.3953C47.2139 31.6344 47.3633 31.815 47.5554 31.9372C47.7492 32.0576 47.9783 32.1178 48.2428 32.1178C48.3914 32.1178 48.5263 32.0995 48.6477 32.0628C48.7709 32.0262 48.8787 31.973 48.9711 31.9032C49.0653 31.8316 49.1423 31.7452 49.202 31.644C49.2636 31.541 49.3062 31.425 49.3298 31.2958L50.6884 31.3037C50.6649 31.541 50.5933 31.7749 50.4738 32.0052C50.356 32.2356 50.1939 32.4459 49.9874 32.6361C49.7808 32.8246 49.529 32.9747 49.2319 33.0864C48.9367 33.1981 48.5979 33.2539 48.2157 33.2539C47.7121 33.2539 47.261 33.1475 46.8624 32.9346C46.4657 32.7199 46.1523 32.4075 45.9222 31.9974C45.6922 31.5873 45.5771 31.0881 45.5771 30.5C45.5771 29.9101 45.694 29.4101 45.9277 29C46.1614 28.5899 46.4775 28.2784 46.876 28.0655C47.2746 27.8526 47.7211 27.7461 48.2157 27.7461C48.5526 27.7461 48.8642 27.7915 49.1504 27.8822C49.4366 27.9712 49.6884 28.1021 49.9058 28.2749C50.1232 28.4459 50.2998 28.6562 50.4357 28.9058C50.5716 29.1553 50.6558 29.4407 50.6884 29.7618Z" fill="url(#paint3_linear_2203_5467)"/>
<path d="M56.5373 27.8194H58.04L59.2166 30.0628H59.2655L60.4421 27.8194H61.9448L59.9095 31.3901V33.1806H58.5726V31.3901L56.5373 27.8194Z" fill="url(#paint4_linear_2203_5467)"/>
<path d="M67.865 33.1806V27.8194H70.1856C70.6022 27.8194 70.9509 27.8761 71.2317 27.9895C71.5143 28.103 71.7263 28.2618 71.8676 28.466C72.0107 28.6702 72.0823 28.9067 72.0823 29.1754C72.0823 29.3796 72.0379 29.562 71.9491 29.7225C71.8603 29.8813 71.7381 30.0131 71.5823 30.1178C71.4265 30.2225 71.2462 30.2958 71.0415 30.3377V30.3901C71.2662 30.4005 71.4736 30.459 71.6638 30.5655C71.8558 30.6719 72.0098 30.8203 72.1257 31.0105C72.2417 31.199 72.2996 31.4224 72.2996 31.6806C72.2996 31.9686 72.2236 32.226 72.0714 32.4529C71.9192 32.678 71.6991 32.856 71.4111 32.9869C71.123 33.1161 70.7734 33.1806 70.3622 33.1806H67.865ZM69.2101 32.1361H70.0416C70.3332 32.1361 70.5479 32.0829 70.6856 31.9765C70.825 31.87 70.8948 31.7217 70.8948 31.5314C70.8948 31.3936 70.8613 31.2749 70.7942 31.1754C70.7272 31.0742 70.6321 30.9965 70.5089 30.9424C70.3857 30.8866 70.2381 30.8587 70.066 30.8587H69.2101V32.1361ZM69.2101 30.0236H69.9546C70.1013 30.0236 70.2318 30 70.3459 29.9529C70.46 29.9058 70.5488 29.8377 70.6122 29.7487C70.6774 29.6597 70.71 29.5524 70.71 29.4267C70.71 29.247 70.6439 29.1056 70.5116 29.0026C70.3794 28.8997 70.201 28.8482 69.9763 28.8482H69.2101V30.0236Z" fill="url(#paint5_linear_2203_5467)"/>
<path d="M78.3027 33.1806V27.8194H82.1831V28.8717H79.6478V29.9712H81.9847V31.0262H79.6478V32.1283H82.1831V33.1806H78.3027Z" fill="url(#paint6_linear_2203_5467)"/>
<path d="M88.3818 33.1806V27.8194H90.6806C91.0973 27.8194 91.4569 27.8918 91.7594 28.0367C92.0638 28.1798 92.2984 28.3857 92.4632 28.6545C92.6281 28.9215 92.7105 29.2382 92.7105 29.6047C92.7105 29.9765 92.6262 30.2923 92.4578 30.5524C92.2893 30.8107 92.0502 31.0079 91.7404 31.144C91.4306 31.2784 91.0638 31.3456 90.6399 31.3456H89.1861V30.3246H90.3899C90.5928 30.3246 90.7622 30.2993 90.898 30.2487C91.0357 30.1964 91.1399 30.1178 91.2105 30.0131C91.2812 29.9066 91.3165 29.7705 91.3165 29.6047C91.3165 29.4389 91.2812 29.3019 91.2105 29.1937C91.1399 29.0838 91.0357 29.0018 90.898 28.9477C90.7604 28.8918 90.591 28.8639 90.3899 28.8639H89.7269V33.1806H88.3818ZM91.5149 30.7304L92.9007 33.1806H91.4333L90.0747 30.7304H91.5149Z" fill="url(#paint7_linear_2203_5467)"/>
<path d="M101.813 29.4267C101.795 29.2347 101.714 29.0855 101.571 28.9791C101.43 28.8709 101.228 28.8168 100.965 28.8168C100.791 28.8168 100.646 28.8386 100.53 28.8822C100.414 28.9258 100.327 28.9861 100.269 29.0628C100.211 29.1379 100.181 29.2243 100.18 29.322C100.176 29.4023 100.192 29.473 100.228 29.534C100.267 29.5951 100.321 29.6492 100.392 29.6964C100.464 29.7417 100.551 29.7819 100.652 29.8168C100.754 29.8517 100.868 29.8822 100.995 29.9084L101.473 30.0131C101.748 30.0707 101.991 30.1475 102.201 30.2435C102.413 30.3395 102.591 30.4538 102.734 30.5864C102.879 30.719 102.988 30.8717 103.063 31.0445C103.137 31.2173 103.175 31.411 103.177 31.6257C103.175 31.9642 103.086 32.2548 102.91 32.4974C102.735 32.74 102.482 32.9258 102.152 33.055C101.824 33.1841 101.429 33.2487 100.965 33.2487C100.499 33.2487 100.094 33.1815 99.7475 33.0471C99.4015 32.9128 99.1325 32.7086 98.9405 32.4346C98.7484 32.1606 98.6497 31.8141 98.6443 31.3953H99.9323C99.9432 31.5681 99.9912 31.7121 100.076 31.8272C100.161 31.9424 100.278 32.0297 100.427 32.089C100.577 32.1484 100.751 32.178 100.949 32.178C101.13 32.178 101.284 32.1545 101.411 32.1073C101.539 32.0602 101.638 31.9948 101.707 31.911C101.776 31.8272 101.811 31.7313 101.813 31.6231C101.811 31.5218 101.778 31.4354 101.715 31.3639C101.651 31.2906 101.554 31.2278 101.421 31.1754C101.291 31.1213 101.124 31.0716 100.921 31.0262L100.34 30.8953C99.858 30.7888 99.4785 30.6169 99.2013 30.3796C98.9242 30.1405 98.7865 29.8176 98.7883 29.411C98.7865 29.0794 98.8789 28.7888 99.0655 28.5393C99.2521 28.2897 99.5102 28.0951 99.8399 27.9555C100.17 27.8159 100.546 27.7461 100.968 27.7461C101.399 27.7461 101.773 27.8168 102.09 27.9581C102.409 28.0978 102.656 28.2941 102.832 28.5471C103.007 28.8002 103.097 29.0934 103.101 29.4267H101.813Z" fill="url(#paint8_linear_2203_5467)"/>
<path d="M109.212 33.1806V27.8194H113.093V28.8717H110.558V29.9712H112.894V31.0262H110.558V32.1283H113.093V33.1806H109.212Z" fill="url(#paint9_linear_2203_5467)"/>
<path d="M124.343 29.7618H122.984C122.966 29.6274 122.929 29.5061 122.873 29.3979C122.817 29.2897 122.743 29.1972 122.65 29.1204C122.558 29.0436 122.448 28.9852 122.321 28.945C122.196 28.9032 122.058 28.8822 121.906 28.8822C121.636 28.8822 121.403 28.9459 121.207 29.0733C121.013 29.2007 120.864 29.3848 120.759 29.6257C120.656 29.8665 120.604 30.158 120.604 30.5C120.604 30.856 120.657 31.1545 120.762 31.3953C120.868 31.6344 121.018 31.815 121.21 31.9372C121.404 32.0576 121.633 32.1178 121.897 32.1178C122.046 32.1178 122.181 32.0995 122.302 32.0628C122.426 32.0262 122.533 31.973 122.626 31.9032C122.72 31.8316 122.797 31.7452 122.857 31.644C122.918 31.541 122.961 31.425 122.984 31.2958L124.343 31.3037C124.319 31.541 124.248 31.7749 124.128 32.0052C124.011 32.2356 123.848 32.4459 123.642 32.6361C123.435 32.8246 123.184 32.9747 122.887 33.0864C122.591 33.1981 122.253 33.2539 121.87 33.2539C121.367 33.2539 120.916 33.1475 120.517 32.9346C120.12 32.7199 119.807 32.4075 119.577 31.9974C119.347 31.5873 119.232 31.0881 119.232 30.5C119.232 29.9101 119.349 29.4101 119.582 29C119.816 28.5899 120.132 28.2784 120.531 28.0655C120.929 27.8526 121.376 27.7461 121.87 27.7461C122.207 27.7461 122.519 27.7915 122.805 27.8822C123.091 27.9712 123.343 28.1021 123.56 28.2749C123.778 28.4459 123.954 28.6562 124.09 28.9058C124.226 29.1553 124.31 29.4407 124.343 29.7618Z" fill="url(#paint10_linear_2203_5467)"/>
<path d="M133.836 27.8194H135.178V31.2775C135.178 31.6772 135.079 32.0253 134.882 32.322C134.685 32.6169 134.409 32.8456 134.056 33.0079C133.703 33.1684 133.292 33.2487 132.825 33.2487C132.352 33.2487 131.939 33.1684 131.586 33.0079C131.233 32.8456 130.958 32.6169 130.763 32.322C130.567 32.0253 130.469 31.6772 130.469 31.2775V27.8194H131.814V31.1649C131.814 31.3499 131.856 31.5148 131.939 31.6597C132.024 31.8046 132.143 31.918 132.295 32C132.447 32.082 132.624 32.123 132.825 32.123C133.026 32.123 133.202 32.082 133.352 32C133.504 31.918 133.623 31.8046 133.708 31.6597C133.793 31.5148 133.836 31.3499 133.836 31.1649V27.8194Z" fill="url(#paint11_linear_2203_5467)"/>
<path d="M141.378 33.1806V27.8194H143.676C144.093 27.8194 144.453 27.8918 144.755 28.0367C145.06 28.1798 145.294 28.3857 145.459 28.6545C145.624 28.9215 145.706 29.2382 145.706 29.6047C145.706 29.9765 145.622 30.2923 145.454 30.5524C145.285 30.8107 145.046 31.0079 144.736 31.144C144.426 31.2784 144.06 31.3456 143.636 31.3456H142.182V30.3246H143.386C143.589 30.3246 143.758 30.2993 143.894 30.2487C144.032 30.1964 144.136 30.1178 144.206 30.0131C144.277 29.9066 144.312 29.7705 144.312 29.6047C144.312 29.4389 144.277 29.3019 144.206 29.1937C144.136 29.0838 144.032 29.0018 143.894 28.9477C143.756 28.8918 143.587 28.8639 143.386 28.8639H142.723V33.1806H141.378ZM144.511 30.7304L145.896 33.1806H144.429L143.071 30.7304H144.511Z" fill="url(#paint12_linear_2203_5467)"/>
<path d="M153.145 27.8194V33.1806H151.8V27.8194H153.145Z" fill="url(#paint13_linear_2203_5467)"/>
<path d="M159.164 28.8717V27.8194H163.868V28.8717H162.18V33.1806H160.854V28.8717H159.164Z" fill="url(#paint14_linear_2203_5467)"/>
<path d="M169.604 27.8194H171.107L172.283 30.0628H172.332L173.509 27.8194H175.011L172.976 31.3901V33.1806H171.639V31.3901L169.604 27.8194Z" fill="url(#paint15_linear_2203_5467)"/>
<defs>
<linearGradient id="paint0_linear_2203_5467" x1="25.1399" y1="12.6373" x2="-6.77489" y2="46.3627" gradientUnits="userSpaceOnUse">
<stop stop-color="#00FFDD"/>
<stop offset="1" stop-color="#00D4FF"/>
</linearGradient>
<linearGradient id="paint1_linear_2203_5467" x1="29.2532" y1="-7.64041" x2="-18.2151" y2="42.5248" gradientUnits="userSpaceOnUse">
<stop stop-color="#00FFDD"/>
<stop offset="1" stop-color="#00D4FF"/>
</linearGradient>
<linearGradient id="paint2_linear_2203_5467" x1="43.0818" y1="-0.633311" x2="-4.40768" y2="49.5549" gradientUnits="userSpaceOnUse">
<stop stop-color="#00FFDD"/>
<stop offset="1" stop-color="#00D4FF"/>
</linearGradient>
<linearGradient id="paint3_linear_2203_5467" x1="186.839" y1="25.1387" x2="184.679" y2="57.4464" gradientUnits="userSpaceOnUse">
<stop stop-color="#00FFDD"/>
<stop offset="1" stop-color="#00D4FF"/>
</linearGradient>
<linearGradient id="paint4_linear_2203_5467" x1="186.839" y1="25.1387" x2="184.679" y2="57.4464" gradientUnits="userSpaceOnUse">
<stop stop-color="#00FFDD"/>
<stop offset="1" stop-color="#00D4FF"/>
</linearGradient>
<linearGradient id="paint5_linear_2203_5467" x1="186.839" y1="25.1387" x2="184.679" y2="57.4464" gradientUnits="userSpaceOnUse">
<stop stop-color="#00FFDD"/>
<stop offset="1" stop-color="#00D4FF"/>
</linearGradient>
<linearGradient id="paint6_linear_2203_5467" x1="186.839" y1="25.1387" x2="184.679" y2="57.4464" gradientUnits="userSpaceOnUse">
<stop stop-color="#00FFDD"/>
<stop offset="1" stop-color="#00D4FF"/>
</linearGradient>
<linearGradient id="paint7_linear_2203_5467" x1="186.839" y1="25.1387" x2="184.679" y2="57.4464" gradientUnits="userSpaceOnUse">
<stop stop-color="#00FFDD"/>
<stop offset="1" stop-color="#00D4FF"/>
</linearGradient>
<linearGradient id="paint8_linear_2203_5467" x1="186.839" y1="25.1387" x2="184.679" y2="57.4464" gradientUnits="userSpaceOnUse">
<stop stop-color="#00FFDD"/>
<stop offset="1" stop-color="#00D4FF"/>
</linearGradient>
<linearGradient id="paint9_linear_2203_5467" x1="186.839" y1="25.1387" x2="184.679" y2="57.4464" gradientUnits="userSpaceOnUse">
<stop stop-color="#00FFDD"/>
<stop offset="1" stop-color="#00D4FF"/>
</linearGradient>
<linearGradient id="paint10_linear_2203_5467" x1="186.839" y1="25.1387" x2="184.679" y2="57.4464" gradientUnits="userSpaceOnUse">
<stop stop-color="#00FFDD"/>
<stop offset="1" stop-color="#00D4FF"/>
</linearGradient>
<linearGradient id="paint11_linear_2203_5467" x1="186.839" y1="25.1387" x2="184.679" y2="57.4464" gradientUnits="userSpaceOnUse">
<stop stop-color="#00FFDD"/>
<stop offset="1" stop-color="#00D4FF"/>
</linearGradient>
<linearGradient id="paint12_linear_2203_5467" x1="186.839" y1="25.1387" x2="184.679" y2="57.4464" gradientUnits="userSpaceOnUse">
<stop stop-color="#00FFDD"/>
<stop offset="1" stop-color="#00D4FF"/>
</linearGradient>
<linearGradient id="paint13_linear_2203_5467" x1="186.839" y1="25.1387" x2="184.679" y2="57.4464" gradientUnits="userSpaceOnUse">
<stop stop-color="#00FFDD"/>
<stop offset="1" stop-color="#00D4FF"/>
</linearGradient>
<linearGradient id="paint14_linear_2203_5467" x1="186.839" y1="25.1387" x2="184.679" y2="57.4464" gradientUnits="userSpaceOnUse">
<stop stop-color="#00FFDD"/>
<stop offset="1" stop-color="#00D4FF"/>
</linearGradient>
<linearGradient id="paint15_linear_2203_5467" x1="186.839" y1="25.1387" x2="184.679" y2="57.4464" gradientUnits="userSpaceOnUse">
<stop stop-color="#00FFDD"/>
<stop offset="1" stop-color="#00D4FF"/>
</linearGradient>
<clipPath id="clip0_2203_5467">
<rect width="36.0961" height="36.9995" fill="white"/>
</clipPath>
</defs>
</svg>
